<svg width="39" height="39" viewBox="0 0 39 39" fill="none" xmlns="http://www.w3.org/2000/svg">
<rect width="39" height="39" rx="19.5" fill="#FFC310"/>
<path fill-rule="evenodd" clip-rule="evenodd" d="M19.5427 10.5417H19.456C18.7068 10.5417 18.0827 10.5417 17.5877 10.6084C17.0643 10.6784 16.5918 10.8334 16.2127 11.2126C15.8327 11.5926 15.6777 12.0651 15.6077 12.5876C15.5602 12.9434 15.546 13.7926 15.5427 14.5209C13.8577 14.5767 12.8452 14.7734 12.1427 15.4767C11.166 16.4526 11.166 18.0242 11.166 21.1667C11.166 24.3092 11.166 25.8809 12.1427 26.8567C13.1193 27.8326 14.6902 27.8334 17.8327 27.8334H21.166C24.3085 27.8334 25.8802 27.8334 26.856 26.8567C27.8318 25.8801 27.8327 24.3092 27.8327 21.1667C27.8327 18.0242 27.8327 16.4526 26.856 15.4767C26.1535 14.7734 25.141 14.5767 23.456 14.5217C23.4527 13.7926 23.4393 12.9434 23.391 12.5884C23.321 12.0651 23.166 11.5926 22.786 11.2134C22.4068 10.8334 21.9343 10.6784 21.411 10.6084C20.916 10.5417 20.291 10.5417 19.5427 10.5417ZM22.206 14.5017C22.2018 13.7959 22.1902 13.0367 22.1527 12.7542C22.1002 12.3701 22.011 12.2051 21.9027 12.0967C21.7943 11.9884 21.6293 11.8992 21.2443 11.8467C20.8427 11.7934 20.3027 11.7917 19.4993 11.7917C18.696 11.7917 18.156 11.7934 17.7535 11.8476C17.3693 11.8992 17.2043 11.9884 17.096 12.0976C16.9877 12.2067 16.8985 12.3701 16.846 12.7542C16.8085 13.0376 16.796 13.7959 16.7927 14.5017C17.1193 14.5001 17.466 14.4995 17.8327 14.5001H21.166C21.5338 14.5001 21.8805 14.5006 22.206 14.5017ZM19.4993 17.2084C19.6651 17.2084 19.8241 17.2743 19.9413 17.3915C20.0585 17.5087 20.1243 17.6677 20.1243 17.8334V17.8417C21.0318 18.0701 21.791 18.7859 21.791 19.7776C21.791 19.9433 21.7252 20.1023 21.608 20.2195C21.4907 20.3367 21.3318 20.4026 21.166 20.4026C21.0003 20.4026 20.8413 20.3367 20.7241 20.2195C20.6069 20.1023 20.541 19.9433 20.541 19.7776C20.541 19.4576 20.186 19.0142 19.4993 19.0142C18.8127 19.0142 18.4577 19.4576 18.4577 19.7776C18.4577 20.0976 18.8127 20.5417 19.4993 20.5417C20.6535 20.5417 21.791 21.3417 21.791 22.5559C21.791 23.5476 21.0318 24.2626 20.1243 24.4917V24.5001C20.1243 24.6658 20.0585 24.8248 19.9413 24.942C19.8241 25.0592 19.6651 25.1251 19.4993 25.1251C19.3336 25.1251 19.1746 25.0592 19.0574 24.942C18.9402 24.8248 18.8743 24.6658 18.8743 24.5001V24.4917C17.9668 24.2634 17.2077 23.5476 17.2077 22.5559C17.2077 22.3902 17.2735 22.2312 17.3907 22.114C17.508 21.9968 17.6669 21.9309 17.8327 21.9309C17.9984 21.9309 18.1574 21.9968 18.2746 22.114C18.3918 22.2312 18.4577 22.3902 18.4577 22.5559C18.4577 22.8759 18.8127 23.3192 19.4993 23.3192C20.186 23.3192 20.541 22.8759 20.541 22.5559C20.541 22.2359 20.186 21.7917 19.4993 21.7917C18.3452 21.7917 17.2077 20.9917 17.2077 19.7776C17.2077 18.7859 17.9668 18.0701 18.8743 17.8417V17.8334C18.8743 17.6677 18.9402 17.5087 19.0574 17.3915C19.1746 17.2743 19.3336 17.2084 19.4993 17.2084Z" fill="white"/>
</svg>
