<svg width="39" height="39" viewBox="0 0 39 39" fill="none" xmlns="http://www.w3.org/2000/svg">
<rect width="39" height="39" rx="19.5" fill="#FB3816"/>
<path fill-rule="evenodd" clip-rule="evenodd" d="M19.5437 10.5417H19.457C18.7078 10.5417 18.0837 10.5417 17.5887 10.6084C17.0653 10.6784 16.5928 10.8334 16.2137 11.2126C15.8337 11.5926 15.6787 12.0651 15.6087 12.5876C15.5612 12.9434 15.547 13.7926 15.5437 14.5209C13.8587 14.5767 12.8462 14.7734 12.1437 15.4767C11.167 16.4526 11.167 18.0242 11.167 21.1667C11.167 24.3092 11.167 25.8809 12.1437 26.8567C13.1203 27.8326 14.6912 27.8334 17.8337 27.8334H21.167C24.3095 27.8334 25.8812 27.8334 26.857 26.8567C27.8328 25.8801 27.8337 24.3092 27.8337 21.1667C27.8337 18.0242 27.8337 16.4526 26.857 15.4767C26.1545 14.7734 25.142 14.5767 23.457 14.5217C23.4537 13.7926 23.4403 12.9434 23.392 12.5884C23.322 12.0651 23.167 11.5926 22.787 11.2134C22.4078 10.8334 21.9353 10.6784 21.412 10.6084C20.917 10.5417 20.292 10.5417 19.5437 10.5417ZM22.207 14.5017C22.2028 13.7959 22.1912 13.0367 22.1537 12.7542C22.1012 12.3701 22.012 12.2051 21.9037 12.0967C21.7953 11.9884 21.6303 11.8992 21.2453 11.8467C20.8437 11.7934 20.3037 11.7917 19.5003 11.7917C18.697 11.7917 18.157 11.7934 17.7545 11.8476C17.3703 11.8992 17.2053 11.9884 17.097 12.0976C16.9887 12.2067 16.8995 12.3701 16.847 12.7542C16.8095 13.0376 16.797 13.7959 16.7937 14.5017C17.1203 14.5001 17.467 14.4995 17.8337 14.5001H21.167C21.5348 14.5001 21.8814 14.5006 22.207 14.5017ZM19.5003 17.2084C19.6661 17.2084 19.8251 17.2743 19.9423 17.3915C20.0595 17.5087 20.1253 17.6677 20.1253 17.8334V17.8417C21.0328 18.0701 21.792 18.7859 21.792 19.7776C21.792 19.9433 21.7261 20.1023 21.6089 20.2195C21.4917 20.3367 21.3328 20.4026 21.167 20.4026C21.0012 20.4026 20.8423 20.3367 20.7251 20.2195C20.6078 20.1023 20.542 19.9433 20.542 19.7776C20.542 19.4576 20.187 19.0142 19.5003 19.0142C18.8137 19.0142 18.4587 19.4576 18.4587 19.7776C18.4587 20.0976 18.8137 20.5417 19.5003 20.5417C20.6545 20.5417 21.792 21.3417 21.792 22.5559C21.792 23.5476 21.0328 24.2626 20.1253 24.4917V24.5001C20.1253 24.6658 20.0595 24.8248 19.9423 24.942C19.8251 25.0592 19.6661 25.1251 19.5003 25.1251C19.3346 25.1251 19.1756 25.0592 19.0584 24.942C18.9412 24.8248 18.8753 24.6658 18.8753 24.5001V24.4917C17.9678 24.2634 17.2087 23.5476 17.2087 22.5559C17.2087 22.3902 17.2745 22.2312 17.3917 22.114C17.5089 21.9968 17.6679 21.9309 17.8337 21.9309C17.9994 21.9309 18.1584 21.9968 18.2756 22.114C18.3928 22.2312 18.4587 22.3902 18.4587 22.5559C18.4587 22.8759 18.8137 23.3192 19.5003 23.3192C20.187 23.3192 20.542 22.8759 20.542 22.5559C20.542 22.2359 20.187 21.7917 19.5003 21.7917C18.3462 21.7917 17.2087 20.9917 17.2087 19.7776C17.2087 18.7859 17.9678 18.0701 18.8753 17.8417V17.8334C18.8753 17.6677 18.9412 17.5087 19.0584 17.3915C19.1756 17.2743 19.3346 17.2084 19.5003 17.2084Z" fill="white"/>
</svg>
