<svg width="20" height="20" viewBox="0 0 20 20" fill="none" xmlns="http://www.w3.org/2000/svg">
<g clip-path="url(#clip0_282_1552)">
<path d="M20 3.16667C20 2.39312 19.6927 1.65125 19.1457 1.10427C18.5987 0.557291 17.8569 0.25 17.0833 0.25H2.91667C2.14447 0.254375 1.40514 0.563071 0.859106 1.10911C0.313071 1.65514 0.00437517 2.39447 0 3.16667L0 14C0.0276203 14.801 0.309989 15.5722 0.806055 16.2017C1.30212 16.8311 1.98602 17.2859 2.75833 17.5C12.8667 19.8583 12.25 19.75 12.7 19.75C13.232 19.7668 13.7523 19.5924 14.1667 19.2583C14.4442 19.0231 14.6637 18.7271 14.8083 18.3932C14.9528 18.0593 15.0184 17.6967 15 17.3333V9.25833C15.0001 8.48305 14.747 7.72895 14.2792 7.11071C13.8114 6.49248 13.1545 6.04395 12.4083 5.83333L3.38333 3.33333C3.2231 3.29024 3.08655 3.18525 3.00372 3.04147C2.92089 2.89769 2.89857 2.7269 2.94167 2.56667C2.98476 2.40643 3.08975 2.26988 3.23353 2.18705C3.37731 2.10422 3.5481 2.0819 3.70833 2.125C6.81667 2.95833 6.64167 2.95833 6.68333 2.95833H17.0833C17.2491 2.95833 17.4081 3.02418 17.5253 3.14139C17.6425 3.2586 17.7083 3.41757 17.7083 3.58333C17.7083 3.74909 17.6425 3.90806 17.5253 4.02527C17.4081 4.14248 17.2491 4.20833 17.0833 4.20833H12.7167C12.6669 4.20997 12.6194 4.22935 12.5827 4.26298C12.546 4.29661 12.5226 4.34226 12.5167 4.39167C12.5087 4.44219 12.5195 4.4939 12.5472 4.53693C12.5749 4.57996 12.6174 4.61131 12.6667 4.625C13.648 4.87643 14.5236 5.43394 15.1667 6.21667C15.1869 6.24101 15.2125 6.26042 15.2413 6.27342C15.2702 6.28641 15.3017 6.29265 15.3333 6.29167H17.0833C17.2491 6.29167 17.4081 6.35751 17.5253 6.47472C17.6425 6.59194 17.7083 6.75091 17.7083 6.91667C17.7083 7.08243 17.6425 7.2414 17.5253 7.35861C17.4081 7.47582 17.2491 7.54167 17.0833 7.54167H16.25C16.2168 7.54191 16.1842 7.55041 16.1551 7.56642C16.126 7.58242 16.1013 7.60542 16.0833 7.63333C16.0694 7.66187 16.0621 7.69322 16.0621 7.725C16.0621 7.75678 16.0694 7.78813 16.0833 7.81667C16.2363 8.282 16.315 8.76851 16.3167 9.25833V15.0417C16.3167 15.0969 16.3386 15.1499 16.3777 15.189C16.4168 15.2281 16.4697 15.25 16.525 15.25H17.15C17.9119 15.2326 18.6368 14.9176 19.1694 14.3725C19.7021 13.8274 20.0002 13.0955 20 12.3333V3.16667ZM12.9167 12.75C12.9167 13.0796 12.8189 13.4019 12.6358 13.676C12.4526 13.95 12.1923 14.1637 11.8878 14.2898C11.5833 14.4159 11.2482 14.449 10.9248 14.3846C10.6015 14.3203 10.3046 14.1616 10.0715 13.9285C9.8384 13.6954 9.67967 13.3985 9.61536 13.0752C9.55105 12.7518 9.58405 12.4167 9.7102 12.1122C9.83635 11.8076 10.05 11.5474 10.324 11.3642C10.5981 11.1811 10.9204 11.0833 11.25 11.0833C11.692 11.0833 12.1159 11.2589 12.4285 11.5715C12.7411 11.884 12.9167 12.308 12.9167 12.75Z" fill="#1E1E1E"/>
</g>
<defs>
<clipPath id="clip0_282_1552">
<rect width="20" height="20" fill="white"/>
</clipPath>
</defs>
</svg>
