<svg width="24" height="24" viewBox="0 0 24 24" fill="none" xmlns="http://www.w3.org/2000/svg">
<path d="M1.71387 12.0001C1.71387 6.31936 6.31887 1.71436 11.9996 1.71436C17.6803 1.71436 22.2853 6.31936 22.2853 12.0001C22.2853 17.6808 17.6803 22.2858 11.9996 22.2858C6.31887 22.2858 1.71387 17.6808 1.71387 12.0001ZM12.2452 12.7475C13.5197 13.0612 13.9016 13.4769 13.9016 14.1789C13.9016 14.9084 13.4109 15.4604 12.2452 15.5491V12.7475ZM11.475 11.1734C10.3847 10.9004 9.97544 10.4439 9.97544 9.82336C9.97544 9.20278 10.4936 8.6375 11.4754 8.51493L11.475 11.1734ZM12.2452 11.3572V8.51493C13.1177 8.62378 13.731 9.12136 13.8197 9.98064H15.2374C15.183 8.4335 13.9492 7.41093 12.2452 7.27421V6.12264H11.475V7.27421C9.7573 7.40407 8.53072 8.4125 8.53072 9.9395C8.53072 11.3229 9.46458 12.1004 11.1956 12.5024L11.475 12.5705V15.5422C10.3779 15.4265 9.85972 14.8402 9.73715 14.0426H8.3263C8.37344 15.6785 9.74401 16.6531 11.475 16.7829V17.9276H12.2452V16.7829C13.9834 16.6599 15.3467 15.7128 15.3467 14.0426C15.3467 12.5911 14.3653 11.8548 12.5726 11.4391L12.2452 11.3572Z" fill="#FFC310"/>
</svg>
