<svg width="32" height="32" viewBox="0 0 32 32" fill="none" xmlns="http://www.w3.org/2000/svg">
<path d="M25 2.6665C25.7956 2.6665 26.5587 2.94746 27.1213 3.44755C27.6839 3.94765 28 4.62593 28 5.33317V26.6665C28 27.3737 27.6839 28.052 27.1213 28.5521C26.5587 29.0522 25.7956 29.3332 25 29.3332H7C6.20435 29.3332 5.44129 29.0522 4.87868 28.5521C4.31607 28.052 4 27.3737 4 26.6665V5.33317C4 4.62593 4.31607 3.94765 4.87868 3.44755C5.44129 2.94746 6.20435 2.6665 7 2.6665H25ZM16 17.3332H11.5C11.1022 17.3332 10.7206 17.4736 10.4393 17.7237C10.158 17.9737 10 18.3129 10 18.6665C10 19.0201 10.158 19.3593 10.4393 19.6093C10.7206 19.8594 11.1022 19.9998 11.5 19.9998H16C16.3978 19.9998 16.7794 19.8594 17.0607 19.6093C17.342 19.3593 17.5 19.0201 17.5 18.6665C17.5 18.3129 17.342 17.9737 17.0607 17.7237C16.7794 17.4736 16.3978 17.3332 16 17.3332ZM20.5 10.6665H11.5C11.1177 10.6669 10.75 10.797 10.4719 11.0303C10.1939 11.2636 10.0266 11.5824 10.0042 11.9217C9.98184 12.261 10.106 12.595 10.3514 12.8556C10.5968 13.1162 10.9449 13.2837 11.3245 13.3238L11.5 13.3332H20.5C20.8823 13.3328 21.25 13.2027 21.5281 12.9694C21.8061 12.7361 21.9734 12.4172 21.9958 12.078C22.0182 11.7387 21.894 11.4047 21.6486 11.1441C21.4032 10.8835 21.0551 10.716 20.6755 10.6758L20.5 10.6665Z" fill="black"/>
</svg>
