<svg width="26" height="26" viewBox="0 0 26 26" fill="none" xmlns="http://www.w3.org/2000/svg">
<path d="M21.666 4.33325H4.33268C3.13777 4.33325 2.16602 5.305 2.16602 6.49992V19.4999C2.16602 20.6948 3.13777 21.6666 4.33268 21.6666H21.666C22.8609 21.6666 23.8327 20.6948 23.8327 19.4999V6.49992C23.8327 5.305 22.8609 4.33325 21.666 4.33325ZM7.04102 7.58325C7.47199 7.58325 7.88532 7.75446 8.19006 8.0592C8.49481 8.36395 8.66602 8.77728 8.66602 9.20825C8.66602 9.63923 8.49481 10.0526 8.19006 10.3573C7.88532 10.662 7.47199 10.8333 7.04102 10.8333C6.61004 10.8333 6.19671 10.662 5.89197 10.3573C5.58722 10.0526 5.41602 9.63923 5.41602 9.20825C5.41602 8.77728 5.58722 8.36395 5.89197 8.0592C6.19671 7.75446 6.61004 7.58325 7.04102 7.58325ZM12.9993 18.4166H5.41602L9.74935 12.9999L11.3743 15.1666L14.6243 10.8333L20.5827 18.4166H12.9993Z" fill="#007BFF"/>
</svg>
