<svg width="16" height="16" viewBox="0 0 16 16" fill="none" xmlns="http://www.w3.org/2000/svg">
<mask id="mask0_282_1607" style="mask-type:luminance" maskUnits="userSpaceOnUse" x="0" y="0" width="16" height="15">
<path d="M3.28567 10.9189C2.07901 11.2809 1.33301 11.7809 1.33301 12.3333C1.33301 13.4379 4.31767 14.3333 7.99967 14.3333C11.6817 14.3333 14.6663 13.4379 14.6663 12.3333C14.6663 11.7809 13.92 11.2809 12.7137 10.9189" stroke="white" stroke-linecap="round" stroke-linejoin="round"/>
<path d="M7.99935 11.6666C7.99935 11.6666 12.3327 8.83459 12.3327 5.56059C12.3327 3.22592 10.3927 1.33325 7.99935 1.33325C5.60602 1.33325 3.66602 3.22592 3.66602 5.56059C3.66602 8.83459 7.99935 11.6666 7.99935 11.6666Z" fill="white" stroke="white" stroke-linejoin="round"/>
<path d="M7.99967 7.33333C8.4417 7.33333 8.86562 7.15774 9.17819 6.84518C9.49075 6.53262 9.66634 6.10869 9.66634 5.66667C9.66634 5.22464 9.49075 4.80072 9.17819 4.48816C8.86562 4.17559 8.4417 4 7.99967 4C7.55765 4 7.13372 4.17559 6.82116 4.48816C6.5086 4.80072 6.33301 5.22464 6.33301 5.66667C6.33301 6.10869 6.5086 6.53262 6.82116 6.84518C7.13372 7.15774 7.55765 7.33333 7.99967 7.33333Z" fill="black" stroke="black" stroke-linejoin="round"/>
</mask>
<g mask="url(#mask0_282_1607)">
<path d="M0 0H16V16H0V0Z" fill="#404040"/>
</g>
</svg>
