<svg width="39" height="35" viewBox="0 0 39 35" fill="none" xmlns="http://www.w3.org/2000/svg">
<rect width="39" height="35" rx="5" fill="#1FAF38"/>
<path d="M26.6243 16.7108H26.485L25.0418 12.4888L12.6546 16.7108L12.3743 16.7084M11.9785 16.7116H12.3743L21.1983 9.6626L23.4284 12.7897" stroke="white" stroke-linecap="square"/>
<path d="M21.4779 20.6669C21.4779 21.1918 21.2693 21.6952 20.8982 22.0664C20.527 22.4376 20.0236 22.6461 19.4987 22.6461C18.9738 22.6461 18.4704 22.4376 18.0992 22.0664C17.728 21.6952 17.5195 21.1918 17.5195 20.6669C17.5195 20.142 17.728 19.6386 18.0992 19.2674C18.4704 18.8963 18.9738 18.6877 19.4987 18.6877C20.0236 18.6877 20.527 18.8963 20.8982 19.2674C21.2693 19.6386 21.4779 20.142 21.4779 20.6669Z" stroke="white" stroke-linecap="square"/>
<path d="M27.0202 16.7085V24.6252H11.9785V16.7085H27.0202Z" stroke="white" stroke-linecap="square"/>
<path d="M11.9785 16.7085H13.5618C13.5618 17.1284 13.395 17.5311 13.0981 17.8281C12.8012 18.125 12.3984 18.2918 11.9785 18.2918V16.7085ZM27.0202 16.7085H25.4368C25.4368 17.1284 25.6037 17.5311 25.9006 17.8281C26.1975 18.125 26.6003 18.2918 27.0202 18.2918V16.7085ZM11.9785 24.6252H13.5634C13.5636 24.417 13.5228 24.2108 13.4432 24.0184C13.3636 23.826 13.2469 23.6512 13.0997 23.504C12.9525 23.3568 12.7777 23.24 12.5853 23.1605C12.3929 23.0809 12.1867 23.04 11.9785 23.0402V24.6252ZM27.0202 24.6252H25.4368C25.4368 24.2052 25.6037 23.8025 25.9006 23.5056C26.1975 23.2086 26.6003 23.0418 27.0202 23.0418V24.6252Z" stroke="white" stroke-linecap="square"/>
</svg>
