<svg width="39" height="35" viewBox="0 0 39 35" fill="none" xmlns="http://www.w3.org/2000/svg">
<rect width="39" height="35" rx="5" fill="#FB3816"/>
<path d="M24.0117 16.1783C24.5 15.69 24.5 14.905 24.5 13.3333C24.5 11.7617 24.5 10.9767 24.0117 10.4883M24.0117 16.1783C23.5233 16.6667 22.7383 16.6667 21.1667 16.6667H17.8333C16.2617 16.6667 15.4767 16.6667 14.9883 16.1783M24.0117 10.4883C23.5233 10 22.7383 10 21.1667 10H17.8333C16.2617 10 15.4767 10 14.9883 10.4883M14.9883 10.4883C14.5 10.9767 14.5 11.7617 14.5 13.3333C14.5 14.905 14.5 15.69 14.9883 16.1783M20.3333 13.3333C20.3333 13.5543 20.2455 13.7663 20.0893 13.9226C19.933 14.0789 19.721 14.1667 19.5 14.1667C19.279 14.1667 19.067 14.0789 18.9107 13.9226C18.7545 13.7663 18.6667 13.5543 18.6667 13.3333C18.6667 13.1123 18.7545 12.9004 18.9107 12.7441C19.067 12.5878 19.279 12.5 19.5 12.5C19.721 12.5 19.933 12.5878 20.0893 12.7441C20.2455 12.9004 20.3333 13.1123 20.3333 13.3333Z" stroke="white"/>
<path d="M24.5003 12.5C23.8373 12.5 23.2014 12.2366 22.7326 11.7678C22.2637 11.2989 22.0003 10.663 22.0003 10M24.5003 14.1667C23.8373 14.1667 23.2014 14.4301 22.7326 14.8989C22.2637 15.3677 22.0003 16.0036 22.0003 16.6667M14.5003 12.5C15.1634 12.5 15.7993 12.2366 16.2681 11.7678C16.7369 11.2989 17.0003 10.663 17.0003 10M14.5003 14.1667C15.1634 14.1667 15.7993 14.4301 16.2681 14.8989C16.7369 15.3677 17.0003 16.0036 17.0003 16.6667M13.667 24.49H15.5503C16.392 24.49 17.2445 24.5783 18.0637 24.7467C19.5263 25.0462 21.0309 25.0795 22.5053 24.845C23.2287 24.7283 23.9387 24.5492 24.582 24.2392C25.162 23.9583 25.8728 23.5642 26.3503 23.1217C26.827 22.68 27.3237 21.9575 27.6753 21.3925C27.9787 20.9075 27.832 20.3133 27.3537 19.9525C27.0847 19.7573 26.7609 19.6523 26.4287 19.6523C26.0964 19.6523 25.7726 19.7573 25.5037 19.9525L23.9978 21.09C23.4145 21.5317 22.777 21.9375 22.0178 22.0583C21.9262 22.0728 21.8303 22.0858 21.7303 22.0975M21.7303 22.0975L21.6387 22.1075M21.7303 22.0975C21.8637 22.0614 21.986 21.9926 22.0862 21.8975C22.2119 21.789 22.3147 21.6564 22.3882 21.5074C22.4618 21.3585 22.5048 21.1963 22.5146 21.0305C22.5244 20.8647 22.5008 20.6986 22.4452 20.5421C22.3897 20.3855 22.3033 20.2417 22.1912 20.1192C22.0826 19.9986 21.9561 19.8955 21.8162 19.8133C19.4853 18.4225 15.8578 19.4817 13.667 21.0358M21.7303 22.0975C21.7002 22.1042 21.6695 22.1076 21.6387 22.1075M21.6387 22.1075C21.1361 22.1579 20.6298 22.159 20.127 22.1108" stroke="white" stroke-linecap="round"/>
<path d="M13.667 20.4167C13.667 19.7264 13.1073 19.1667 12.417 19.1667C11.7266 19.1667 11.167 19.7264 11.167 20.4167V24.5834C11.167 25.2738 11.7266 25.8334 12.417 25.8334C13.1073 25.8334 13.667 25.2738 13.667 24.5834V20.4167Z" stroke="white"/>
</svg>
