<svg width="26" height="26" viewBox="0 0 26 26" fill="none" xmlns="http://www.w3.org/2000/svg">
<rect x="0.5" y="0.5" width="25" height="25" rx="2.5" fill="black"/>
<rect x="0.5" y="0.5" width="25" height="25" rx="2.5" stroke="black"/>
<path d="M11.917 6.49994H15.167L18.7311 2.92494C18.8318 2.8234 18.9516 2.74281 19.0837 2.68781C19.2157 2.63281 19.3573 2.60449 19.5003 2.60449C19.6433 2.60449 19.7849 2.63281 19.9169 2.68781C20.0489 2.74281 20.1687 2.8234 20.2695 2.92494L23.0645 5.73077C23.2662 5.93375 23.3795 6.20832 23.3795 6.49452C23.3795 6.78073 23.2662 7.0553 23.0645 7.25827L20.5836 9.74994H11.917V11.9166C11.917 12.2039 11.8028 12.4795 11.5997 12.6826C11.3965 12.8858 11.1209 12.9999 10.8336 12.9999C10.5463 12.9999 10.2708 12.8858 10.0676 12.6826C9.86442 12.4795 9.75029 12.2039 9.75029 11.9166V8.66661C9.75029 8.09197 9.97856 7.54087 10.3849 7.13454C10.7912 6.72821 11.3423 6.49994 11.917 6.49994ZM5.41695 11.9166V16.2499L2.93612 18.7308C2.73435 18.9338 2.62109 19.2083 2.62109 19.4945C2.62109 19.7807 2.73435 20.0553 2.93612 20.2583L5.73112 23.0641C5.83183 23.1656 5.95165 23.2462 6.08366 23.3012C6.21568 23.3562 6.35727 23.3846 6.50029 23.3846C6.6433 23.3846 6.7849 23.3562 6.91691 23.3012C7.04892 23.2462 7.16874 23.1656 7.26945 23.0641L11.917 18.4166H16.2503C16.5376 18.4166 16.8132 18.3025 17.0163 18.0993C17.2195 17.8961 17.3336 17.6206 17.3336 17.3333V16.2499H18.417C18.7043 16.2499 18.9798 16.1358 19.183 15.9326C19.3862 15.7295 19.5003 15.4539 19.5003 15.1666V14.0833H20.5836C20.8709 14.0833 21.1465 13.9691 21.3497 13.766C21.5528 13.5628 21.667 13.2873 21.667 12.9999V11.9166H14.0836V12.9999C14.0836 13.5746 13.8553 14.1257 13.449 14.532C13.0427 14.9383 12.4916 15.1666 11.917 15.1666H9.75029C9.17565 15.1666 8.62455 14.9383 8.21822 14.532C7.81189 14.1257 7.58362 13.5746 7.58362 12.9999V9.74994L5.41695 11.9166Z" fill="white"/>
</svg>
