<svg width="26" height="26" viewBox="0 0 26 26" fill="none" xmlns="http://www.w3.org/2000/svg">
<path d="M8.95573 15.9033C8.7564 15.9033 8.62207 15.9228 8.55273 15.9423V17.2185C8.63507 17.238 8.73798 17.2434 8.8799 17.2434C9.39882 17.2434 9.7184 16.9812 9.7184 16.5382C9.7184 16.1417 9.44323 15.9033 8.95573 15.9033ZM12.7333 15.9163C12.5167 15.9163 12.3758 15.9358 12.2924 15.9553V18.7828C12.3758 18.8023 12.5102 18.8023 12.6315 18.8023C13.5166 18.8088 14.0929 18.3213 14.0929 17.29C14.0994 16.3908 13.574 15.9163 12.7333 15.9163Z" fill="#FB3816"/>
<path d="M15.1663 2.16675H6.49967C5.92504 2.16675 5.37394 2.39502 4.96761 2.80135C4.56128 3.20768 4.33301 3.75878 4.33301 4.33341V21.6667C4.33301 22.2414 4.56128 22.7925 4.96761 23.1988C5.37394 23.6051 5.92504 23.8334 6.49967 23.8334H19.4997C20.0743 23.8334 20.6254 23.6051 21.0317 23.1988C21.4381 22.7925 21.6663 22.2414 21.6663 21.6667V8.66675L15.1663 2.16675ZM10.2892 17.5392C9.95442 17.8534 9.46042 17.9942 8.88517 17.9942C8.77362 17.9963 8.66206 17.9898 8.55151 17.9747V19.5196H7.58301V15.2556C8.02011 15.1906 8.46173 15.1609 8.90359 15.1667C9.50701 15.1667 9.93601 15.2816 10.2253 15.5123C10.5004 15.7312 10.6868 16.0897 10.6868 16.5122C10.6857 16.9369 10.5448 17.2955 10.2892 17.5392ZM14.4134 19.0072C13.9584 19.3852 13.2662 19.5651 12.4201 19.5651C11.9131 19.5651 11.5545 19.5326 11.3108 19.5001V15.2567C11.748 15.1931 12.1895 15.163 12.6313 15.1667C13.4514 15.1667 13.9844 15.3141 14.4004 15.6282C14.85 15.9619 15.1317 16.4938 15.1317 17.2576C15.1317 18.0842 14.8294 18.6551 14.4134 19.0072ZM18.4163 16.0009H16.7567V16.9878H18.308V17.783H16.7567V19.5207H15.7752V15.1992H18.4163V16.0009ZM15.1663 9.75008H14.083V4.33341L19.4997 9.75008H15.1663Z" fill="#FB3816"/>
</svg>
