<svg width="26" height="26" viewBox="0 0 26 26" fill="none" xmlns="http://www.w3.org/2000/svg">
<path fill-rule="evenodd" clip-rule="evenodd" d="M15.1497 2.75391C15.2439 2.937 15.2677 3.17208 15.3143 3.64225C15.4032 4.53058 15.4476 4.97475 15.6339 5.21958C15.75 5.3716 15.9043 5.49016 16.081 5.56323C16.2578 5.6363 16.4508 5.66126 16.6403 5.63558C16.9437 5.5955 17.2903 5.31275 17.9815 4.74725C18.3466 4.44716 18.5297 4.29766 18.7257 4.23483C18.9755 4.15503 19.2457 4.1685 19.4862 4.27275C19.6758 4.35508 19.8437 4.52191 20.1763 4.85558L21.1448 5.82408C21.4785 6.15775 21.6453 6.32458 21.7277 6.51416C21.8319 6.75473 21.8454 7.02493 21.7656 7.27466C21.7027 7.47075 21.5532 7.65383 21.2542 8.01891C20.6877 8.71116 20.4049 9.05675 20.3637 9.36116C20.3384 9.55064 20.3636 9.74344 20.4369 9.92001C20.5101 10.0966 20.6288 10.2506 20.7808 10.3665C21.0246 10.5528 21.4698 10.5972 22.3592 10.6861C22.8283 10.7327 23.0634 10.7565 23.2476 10.8507C23.4799 10.9712 23.6608 11.1717 23.7567 11.4152C23.8337 11.6069 23.8337 11.8431 23.8337 12.3154V13.6847C23.8337 14.1571 23.8337 14.3932 23.7578 14.5839C23.6615 14.8281 23.4798 15.0291 23.2465 15.1494C23.0634 15.2437 22.8283 15.2675 22.3582 15.3141C21.4698 15.4029 21.0257 15.4473 20.7808 15.6337C20.6288 15.7498 20.5102 15.904 20.4372 16.0808C20.3641 16.2576 20.3391 16.4505 20.3648 16.6401C20.406 16.9434 20.6887 17.2901 21.2542 17.9812C21.5532 18.3463 21.7027 18.5283 21.7656 18.7255C21.8454 18.9752 21.8319 19.2454 21.7277 19.486C21.6453 19.6756 21.4785 19.8424 21.1448 20.1761L20.1763 21.1435C19.8427 21.4782 19.6758 21.6451 19.4862 21.7263C19.2457 21.8306 18.9755 21.8441 18.7257 21.7642C18.5297 21.7014 18.3466 21.5519 17.9815 21.2529C17.2892 20.6874 16.9437 20.4047 16.6403 20.3646C16.4508 20.3389 16.2578 20.3639 16.081 20.4369C15.9043 20.51 15.75 20.6286 15.6339 20.7806C15.4476 21.0243 15.4032 21.4685 15.3143 22.3579C15.2677 22.8281 15.2439 23.0632 15.1497 23.2462C15.0296 23.4794 14.8291 23.6611 14.5852 23.7576C14.3935 23.8334 14.1573 23.8334 13.685 23.8334H12.3157C11.8433 23.8334 11.6072 23.8334 11.4165 23.7576C11.1723 23.6613 10.9713 23.4796 10.851 23.2462C10.7567 23.0632 10.7329 22.8281 10.6863 22.3579C10.5975 21.4696 10.5531 21.0254 10.3667 20.7806C10.2507 20.6287 10.0966 20.5103 9.92009 20.4372C9.74353 20.3642 9.55078 20.3391 9.36141 20.3646C9.05699 20.4047 8.71141 20.6874 8.01916 21.2529C7.65408 21.553 7.47099 21.7025 7.27491 21.7653C7.02517 21.8451 6.75497 21.8317 6.51441 21.7274C6.32483 21.6451 6.15691 21.4782 5.82433 21.1446L4.85583 20.1761C4.52216 19.8424 4.35533 19.6756 4.27299 19.486C4.16875 19.2454 4.15527 18.9752 4.23508 18.7255C4.29791 18.5294 4.44741 18.3463 4.74641 17.9812C5.31299 17.289 5.59574 16.9434 5.63583 16.639C5.66131 16.4496 5.63625 16.2569 5.56319 16.0803C5.49013 15.9038 5.37167 15.7497 5.21983 15.6337C4.97608 15.4473 4.53083 15.4029 3.64141 15.3141C3.17233 15.2675 2.93724 15.2437 2.75308 15.1494C2.52075 15.029 2.33989 14.8285 2.24391 14.585C2.16699 14.3932 2.16699 14.1571 2.16699 13.6847V12.3154C2.16699 11.8431 2.16699 11.6069 2.24283 11.4162C2.33912 11.172 2.52083 10.9711 2.75416 10.8507C2.93724 10.7565 3.17233 10.7327 3.64249 10.6861C4.53083 10.5972 4.97608 10.5528 5.21983 10.3665C5.37186 10.2506 5.49053 10.0966 5.56379 9.92001C5.63704 9.74344 5.66227 9.55064 5.63691 9.36116C5.59574 9.05675 5.31191 8.71116 4.74641 8.01783C4.44741 7.65275 4.29791 7.47075 4.23508 7.27358C4.15527 7.02385 4.16875 6.75364 4.27299 6.51308C4.35533 6.32458 4.52216 6.15666 4.85583 5.823L5.82433 4.85558C6.15799 4.52191 6.32483 4.354 6.51441 4.27275C6.75497 4.1685 7.02517 4.15503 7.27491 4.23483C7.47099 4.29766 7.65408 4.44716 8.01916 4.74616C8.71141 5.31166 9.05699 5.59441 9.36033 5.63558C9.55014 5.66134 9.74339 5.63631 9.92038 5.56304C10.0974 5.48977 10.2518 5.37088 10.3678 5.2185C10.552 4.97475 10.5975 4.53058 10.6863 3.64116C10.7329 3.17208 10.7567 2.937 10.851 2.75283C10.9713 2.5201 11.1718 2.33883 11.4154 2.24258C11.6072 2.16675 11.8433 2.16675 12.3157 2.16675H13.685C14.1573 2.16675 14.3935 2.16675 14.5842 2.24258C14.8284 2.33888 15.0293 2.52058 15.1497 2.75391ZM13.0003 17.3334C14.1496 17.3334 15.2518 16.8769 16.0645 16.0642C16.8771 15.2516 17.3337 14.1494 17.3337 13.0001C17.3337 11.8508 16.8771 10.7486 16.0645 9.93595C15.2518 9.12329 14.1496 8.66675 13.0003 8.66675C11.8511 8.66675 10.7489 9.12329 9.9362 9.93595C9.12354 10.7486 8.66699 11.8508 8.66699 13.0001C8.66699 14.1494 9.12354 15.2516 9.9362 16.0642C10.7489 16.8769 11.8511 17.3334 13.0003 17.3334Z" fill="black"/>
</svg>
