<svg width="32" height="32" viewBox="0 0 32 32" fill="none" xmlns="http://www.w3.org/2000/svg">
<path d="M6 30H26V25C25.9974 23.1443 25.259 21.3654 23.9468 20.0532C22.6346 18.741 20.8557 18.0026 19 18H13C11.1443 18.0026 9.36536 18.741 8.05317 20.0532C6.74099 21.3654 6.00265 23.1443 6 25V30ZM9 9C9 10.3845 9.41054 11.7378 10.1797 12.889C10.9489 14.0401 12.0421 14.9373 13.3212 15.4672C14.6003 15.997 16.0078 16.1356 17.3656 15.8655C18.7235 15.5954 19.9708 14.9287 20.9497 13.9497C21.9287 12.9708 22.5954 11.7235 22.8655 10.3656C23.1356 9.00776 22.997 7.6003 22.4672 6.32122C21.9373 5.04213 21.0401 3.94888 19.889 3.17971C18.7378 2.41054 17.3845 2 16 2C14.1435 2 12.363 2.7375 11.0503 4.05025C9.7375 5.36301 9 7.14348 9 9Z" fill="black"/>
</svg>
